# xmcd
#
# Track frame offsets:
#	150
#	8765
#	22210
#	43772
#	55640
#	69987
#	79915
#	92317
#	96417
#	107452
#	123240
#	131067
#	134902
#	147350
#	153030
#	160052
#	174045
#	182035
#	192342
#	200922
#
# Disc length: 2790 seconds
#
# Revision: 0
# Processed by: cddbd v1.4PL0 Copyright (c) Steve Scherf et al.
# Submitted via: EasyCDDAExtractor 4.6.0.1
#
DISCID=0f0ae414
DTITLE=The Stanley Brothers - Old-Time Songs
DYEAR=1900
DGENRE=Bluegrass
TTITLE0=Handsome Molly
TTITLE1=East Virginia Blues
TTITLE2=The Story Of The Lawson Family
TTITLE3=Dream Of The Miner's Child
TTITLE4=Come All You Tenderhearted
TTITLE5=Poor Ellen Smith
TTITLE6=Darling Do You Know Who Loves You
TTITLE7=Shout Little Lulie
TTITLE8=Bound To Ride
TTITLE9=Meet Me Tonight
TTITLE10=My Long Skinny Lanky Sarah Jane
TTITLE11=Little Bessie
TTITLE12=Train 45
TTITLE13=John Henry
TTITLE14=Little Birdie
TTITLE15=Drifting Too Far From The Shore
TTITLE16=Orange Blossom Special
TTITLE17=Nine Pound Hammer
TTITLE18=Feast Here Tonight
TTITLE19=Tragic Love
EXTD=
EXTT0=
EXTT1=
EXTT2=
EXTT3=
EXTT4=
EXTT5=
EXTT6=
EXTT7=
EXTT8=
EXTT9=
EXTT10=
EXTT11=
EXTT12=
EXTT13=
EXTT14=
EXTT15=
EXTT16=
EXTT17=
EXTT18=
EXTT19=
PLAYORDER=
